<svg xmlns="http://www.w3.org/2000/svg" version="1.1" xlink="http://www.w3.org/1999/xlink" xmlns:svgjs="http://svgjs.com/svgjs" width="100%" height="100%" viewBox="4.715999603271484 11.562002182006836 90.56916809082031 76.875"><g fill="#d411b4"><path d="M46.922 51.562h33.102a1.564 1.564 0 0 0 1.563-1.563v-.003a38.405 38.405 0 0 0-11.215-27.133 38.392 38.392 0 0 0-27.11-11.277c-.039-.004-.074-.024-.113-.024-.039 0-.074.02-.113.024A38.353 38.353 0 0 0 4.739 49.875c-.004.043-.023.082-.023.125s.023.082.023.125A38.37 38.37 0 0 0 15.973 77.18a38.34 38.34 0 0 0 27.059 11.234c.043.003.078.023.117.023.043 0 .078-.02.117-.023h.004A38.307 38.307 0 0 0 70.33 77.18a1.564 1.564 0 0 0 0-2.211zm-38.992 0h3.73a31.25 31.25 0 0 0 8.122 19.598l-2.649 2.648A35.12 35.12 0 0 1 7.93 51.562zm9.203-25.371l2.648 2.648a31.247 31.247 0 0 0-8.12 19.598H7.93a35.119 35.119 0 0 1 9.203-22.246zm61.25 22.246h-3.746a31.254 31.254 0 0 0-8.117-19.598l2.648-2.652a34.971 34.971 0 0 1 9.215 22.25zM44.711 21.636a28.17 28.17 0 0 1 17.391 7.203l-17.39 17.387zm-3.125 24.59L24.2 28.839a28.158 28.158 0 0 1 17.387-7.203zm-2.207 2.21H14.785a28.179 28.179 0 0 1 7.203-17.39zm0 3.126l-17.39 17.39a28.176 28.176 0 0 1-7.204-17.39zm2.211 2.21l-.004 24.579A28.307 28.307 0 0 1 24.2 71.159zM64.313 31.05h-.004a28.158 28.158 0 0 1 7.203 17.387h-24.59zm0-4.418l-.004-.004a31.265 31.265 0 0 0-19.598-8.117v-3.735a35.133 35.133 0 0 1 22.246 9.203zM41.59 18.515l-.004-.004a31.275 31.275 0 0 0-19.598 8.117l-2.648-2.649a35.149 35.149 0 0 1 22.246-9.203zM21.992 73.367a31.39 31.39 0 0 0 19.594 8.109v3.746-.004A35.123 35.123 0 0 1 19.34 76.02zm22.719 8.105v.004a31.393 31.393 0 0 0 19.598-8.11l2.648 2.653a35.108 35.108 0 0 1-22.246 9.2zM62.098 71.16a28.298 28.298 0 0 1-17.387 7.192V53.774z"></path><path d="M34.605 35.062a4.694 4.694 0 0 0 4.336-2.898 4.701 4.701 0 0 0-1.016-5.118c-1.343-1.34-3.363-1.742-5.117-1.015s-2.898 2.437-2.898 4.336a4.705 4.705 0 0 0 4.695 4.695zm0-6.266a1.571 1.571 0 1 1-.602 3.02 1.57 1.57 0 0 1 .602-3.02zM19.906 45.48a4.698 4.698 0 0 0 6.637-.004 4.698 4.698 0 0 0 .004-6.637 4.81 4.81 0 0 0-6.641 0 4.702 4.702 0 0 0 0 6.641zm2.21-4.43a1.573 1.573 0 0 1 2.219-.004c.614.614.614 1.61 0 2.223a1.568 1.568 0 1 1-2.218-2.219zm1.4 22.188a4.696 4.696 0 1 0-1.797-9.031 4.695 4.695 0 0 0 1.797 9.031zm0-6.266v.004a1.56 1.56 0 0 1 1.45.97 1.559 1.559 0 0 1-.34 1.706 1.565 1.565 0 0 1-2.676-1.105c0-.868.703-1.57 1.566-1.57zm15.113 9.633a4.699 4.699 0 0 0-6.64 0 4.687 4.687 0 0 0-1.016 5.117 4.694 4.694 0 1 0 7.656-5.117zm-2.21 4.43c-.622.59-1.599.59-2.22 0a1.571 1.571 0 0 1 1.11-2.68 1.571 1.571 0 0 1 1.11 2.68zm15.276 3.293a4.694 4.694 0 0 0 3.316-8.016A4.694 4.694 0 0 0 47 69.632a4.702 4.702 0 0 0 4.696 4.696zm0-6.266a1.57 1.57 0 1 1-.003 3.141 1.57 1.57 0 0 1 .003-3.14zm42.028-14.917H56.852c-.633 0-1.203.383-1.445.965a1.557 1.557 0 0 0 .34 1.703L81.82 81.887a1.557 1.557 0 0 0 2.207 0 38.173 38.173 0 0 0 11.258-27.18 1.568 1.568 0 0 0-1.563-1.563zm-8.512 3.125h.004a28.16 28.16 0 0 1-7.203 17.391L60.622 56.27zM82.9 78.547l-2.68-2.68v.004a31.258 31.258 0 0 0 8.12-19.601h3.79a35.038 35.038 0 0 1-9.231 22.281z"></path><path d="M80.094 65.871a4.698 4.698 0 0 0-5.117-7.66 4.696 4.696 0 0 0-2.809 5.254 4.697 4.697 0 0 0 4.606 3.777 4.662 4.662 0 0 0 3.32-1.371zm-4.89-3.32h.003a1.552 1.552 0 0 1 .696-1.305 1.558 1.558 0 0 1 1.472-.145c.485.2.836.63.938 1.141a1.573 1.573 0 0 1-.43 1.418c-.621.59-1.598.59-2.219 0a1.557 1.557 0 0 1-.457-1.11zM62.781 36.762a4.694 4.694 0 1 0 .002 9.388 4.694 4.694 0 0 0-.002-9.388zm0 6.266v-.004a1.564 1.564 0 0 1-1.45-.97 1.572 1.572 0 0 1 2.05-2.05 1.57 1.57 0 0 1-.602 3.02zm-8.469-16.27a4.81 4.81 0 0 0-6.64 0 4.694 4.694 0 0 0 6.636 6.637h.004a4.701 4.701 0 0 0 0-6.637zm-2.21 4.43a1.571 1.571 0 1 1 0-2.223 1.58 1.58 0 0 1 0 2.223z"></path></g></svg>